<mxfile host="Electron" agent="Mozilla/5.0 (Windows NT 10.0; Win64; x64) AppleWebKit/537.36 (KHTML, like Gecko) draw.io/27.0.9 Chrome/134.0.6998.205 Electron/35.4.0 Safari/537.36" version="27.0.9">
  <diagram name="Page-1" id="17DKB0htJXBnb-WX_iBM">
    <mxGraphModel dx="2095" dy="1436" grid="1" gridSize="10" guides="1" tooltips="1" connect="1" arrows="1" fold="1" page="1" pageScale="1" pageWidth="827" pageHeight="1169" math="0" shadow="0">
      <root>
        <mxCell id="0" />
        <mxCell id="1" parent="0" />
        <mxCell id="PuRmvYOiPRtLhS61ahAM-12" style="edgeStyle=orthogonalEdgeStyle;rounded=0;orthogonalLoop=1;jettySize=auto;html=1;entryX=0;entryY=0.5;entryDx=0;entryDy=0;labelBackgroundColor=none;fontColor=default;endArrow=none;startFill=0;" edge="1" parent="1" source="TFHFOIj9tjhnoZoXByAP-1" target="PuRmvYOiPRtLhS61ahAM-4">
          <mxGeometry relative="1" as="geometry" />
        </mxCell>
        <mxCell id="PuRmvYOiPRtLhS61ahAM-13" style="edgeStyle=orthogonalEdgeStyle;rounded=0;orthogonalLoop=1;jettySize=auto;html=1;entryX=0;entryY=0.5;entryDx=0;entryDy=0;labelBackgroundColor=none;fontColor=default;endArrow=none;startFill=0;" edge="1" parent="1" source="TFHFOIj9tjhnoZoXByAP-1" target="TFHFOIj9tjhnoZoXByAP-6">
          <mxGeometry relative="1" as="geometry" />
        </mxCell>
        <mxCell id="TFHFOIj9tjhnoZoXByAP-1" value="Nick : Student" style="swimlane;fontStyle=1;align=center;verticalAlign=top;childLayout=stackLayout;horizontal=1;startSize=26;horizontalStack=0;resizeParent=1;resizeParentMax=0;resizeLast=0;collapsible=1;marginBottom=0;whiteSpace=wrap;html=1;labelBackgroundColor=none;rounded=0;" parent="1" vertex="1">
          <mxGeometry x="40" y="320" width="140" height="70" as="geometry">
            <mxRectangle x="80" y="80" width="80" height="30" as="alternateBounds" />
          </mxGeometry>
        </mxCell>
        <mxCell id="TFHFOIj9tjhnoZoXByAP-2" value="Am = p21052&lt;div&gt;Name = Nick TheGreek&lt;/div&gt;" style="text;strokeColor=none;fillColor=none;align=left;verticalAlign=top;spacingLeft=4;spacingRight=4;overflow=hidden;rotatable=0;points=[[0,0.5],[1,0.5]];portConstraint=eastwest;whiteSpace=wrap;html=1;labelBackgroundColor=none;rounded=0;" parent="TFHFOIj9tjhnoZoXByAP-1" vertex="1">
          <mxGeometry y="26" width="140" height="44" as="geometry" />
        </mxCell>
        <mxCell id="TFHFOIj9tjhnoZoXByAP-3" value="Software Technology : Course" style="swimlane;fontStyle=1;align=center;verticalAlign=top;childLayout=stackLayout;horizontal=1;startSize=26;horizontalStack=0;resizeParent=1;resizeParentMax=0;resizeLast=0;collapsible=1;marginBottom=0;whiteSpace=wrap;html=1;labelBackgroundColor=none;rounded=0;" parent="1" vertex="1">
          <mxGeometry x="520" y="280" width="290" height="80" as="geometry">
            <mxRectangle x="80" y="80" width="80" height="30" as="alternateBounds" />
          </mxGeometry>
        </mxCell>
        <mxCell id="TFHFOIj9tjhnoZoXByAP-4" value="Id =&amp;nbsp;04e67eea-0d40-4ad1-b899-744acf0ca124&lt;div&gt;Name = Software Technology&lt;/div&gt;&lt;div&gt;Semester = 6&lt;/div&gt;" style="text;strokeColor=none;fillColor=none;align=left;verticalAlign=top;spacingLeft=4;spacingRight=4;overflow=hidden;rotatable=0;points=[[0,0.5],[1,0.5]];portConstraint=eastwest;whiteSpace=wrap;html=1;labelBackgroundColor=none;rounded=0;" parent="TFHFOIj9tjhnoZoXByAP-3" vertex="1">
          <mxGeometry y="26" width="290" height="54" as="geometry" />
        </mxCell>
        <mxCell id="TFHFOIj9tjhnoZoXByAP-5" value="Nick.Grades[0] : Grade" style="swimlane;fontStyle=1;align=center;verticalAlign=top;childLayout=stackLayout;horizontal=1;startSize=26;horizontalStack=0;resizeParent=1;resizeParentMax=0;resizeLast=0;collapsible=1;marginBottom=0;whiteSpace=wrap;html=1;labelBackgroundColor=none;rounded=0;" parent="1" vertex="1">
          <mxGeometry x="260" y="290" width="150" height="60" as="geometry">
            <mxRectangle x="80" y="80" width="80" height="30" as="alternateBounds" />
          </mxGeometry>
        </mxCell>
        <mxCell id="TFHFOIj9tjhnoZoXByAP-6" value="&lt;div&gt;&lt;span style=&quot;background-color: transparent; color: light-dark(rgb(0, 0, 0), rgb(255, 255, 255));&quot;&gt;Value = 9&lt;/span&gt;&lt;/div&gt;" style="text;strokeColor=none;fillColor=none;align=left;verticalAlign=top;spacingLeft=4;spacingRight=4;overflow=hidden;rotatable=0;points=[[0,0.5],[1,0.5]];portConstraint=eastwest;whiteSpace=wrap;html=1;labelBackgroundColor=none;rounded=0;" parent="TFHFOIj9tjhnoZoXByAP-5" vertex="1">
          <mxGeometry y="26" width="150" height="34" as="geometry" />
        </mxCell>
        <mxCell id="PuRmvYOiPRtLhS61ahAM-37" style="edgeStyle=orthogonalEdgeStyle;shape=connector;rounded=0;orthogonalLoop=1;jettySize=auto;html=1;entryX=0;entryY=0.5;entryDx=0;entryDy=0;strokeColor=default;align=center;verticalAlign=middle;fontFamily=Helvetica;fontSize=11;fontColor=default;labelBackgroundColor=none;startFill=0;endArrow=none;" edge="1" parent="1" source="TFHFOIj9tjhnoZoXByAP-9" target="PuRmvYOiPRtLhS61ahAM-27">
          <mxGeometry relative="1" as="geometry" />
        </mxCell>
        <mxCell id="TFHFOIj9tjhnoZoXByAP-9" value="NickDto : StudentDto" style="swimlane;fontStyle=1;align=center;verticalAlign=top;childLayout=stackLayout;horizontal=1;startSize=26;horizontalStack=0;resizeParent=1;resizeParentMax=0;resizeLast=0;collapsible=1;marginBottom=0;whiteSpace=wrap;html=1;labelBackgroundColor=none;rounded=0;" parent="1" vertex="1">
          <mxGeometry x="40" y="760" width="160" height="80" as="geometry">
            <mxRectangle x="80" y="80" width="80" height="30" as="alternateBounds" />
          </mxGeometry>
        </mxCell>
        <mxCell id="TFHFOIj9tjhnoZoXByAP-10" value="&lt;div&gt;Fullname = Nick TheGreek&lt;br&gt;&lt;/div&gt;&lt;div&gt;Am = p21052&lt;/div&gt;&lt;div&gt;Average = 8&lt;/div&gt;" style="text;strokeColor=none;fillColor=none;align=left;verticalAlign=top;spacingLeft=4;spacingRight=4;overflow=hidden;rotatable=0;points=[[0,0.5],[1,0.5]];portConstraint=eastwest;whiteSpace=wrap;html=1;labelBackgroundColor=none;rounded=0;" parent="TFHFOIj9tjhnoZoXByAP-9" vertex="1">
          <mxGeometry y="26" width="160" height="54" as="geometry" />
        </mxCell>
        <mxCell id="TFHFOIj9tjhnoZoXByAP-13" value="NickWithGrades.Grades[0]: StudentGradeDto" style="swimlane;fontStyle=1;align=center;verticalAlign=top;childLayout=stackLayout;horizontal=1;startSize=26;horizontalStack=0;resizeParent=1;resizeParentMax=0;resizeLast=0;collapsible=1;marginBottom=0;whiteSpace=wrap;html=1;labelBackgroundColor=none;rounded=0;" parent="1" vertex="1">
          <mxGeometry x="560" y="660" width="310" height="100" as="geometry">
            <mxRectangle x="80" y="80" width="80" height="30" as="alternateBounds" />
          </mxGeometry>
        </mxCell>
        <mxCell id="TFHFOIj9tjhnoZoXByAP-14" value="&lt;div&gt;CourseId = 04e67eea-0d40-4ad1-b899-744acf0ca124&lt;/div&gt;&lt;div&gt;Name = Software Technology&lt;/div&gt;&lt;div&gt;Semester = 6&lt;/div&gt;&lt;div&gt;Grade = 9&lt;/div&gt;" style="text;strokeColor=none;fillColor=none;align=left;verticalAlign=top;spacingLeft=4;spacingRight=4;overflow=hidden;rotatable=0;points=[[0,0.5],[1,0.5]];portConstraint=eastwest;whiteSpace=wrap;html=1;labelBackgroundColor=none;rounded=0;" parent="TFHFOIj9tjhnoZoXByAP-13" vertex="1">
          <mxGeometry y="26" width="310" height="74" as="geometry" />
        </mxCell>
        <mxCell id="PuRmvYOiPRtLhS61ahAM-16" style="edgeStyle=orthogonalEdgeStyle;rounded=0;orthogonalLoop=1;jettySize=auto;html=1;entryX=0;entryY=0.25;entryDx=0;entryDy=0;labelBackgroundColor=none;fontColor=default;endArrow=none;startFill=0;" edge="1" parent="1" source="PuRmvYOiPRtLhS61ahAM-3" target="PuRmvYOiPRtLhS61ahAM-9">
          <mxGeometry relative="1" as="geometry" />
        </mxCell>
        <mxCell id="PuRmvYOiPRtLhS61ahAM-3" value="Nick.Grades[1] : Grade" style="swimlane;fontStyle=1;align=center;verticalAlign=top;childLayout=stackLayout;horizontal=1;startSize=26;horizontalStack=0;resizeParent=1;resizeParentMax=0;resizeLast=0;collapsible=1;marginBottom=0;whiteSpace=wrap;html=1;labelBackgroundColor=none;rounded=0;" vertex="1" parent="1">
          <mxGeometry x="260" y="360" width="150" height="60" as="geometry">
            <mxRectangle x="80" y="80" width="80" height="30" as="alternateBounds" />
          </mxGeometry>
        </mxCell>
        <mxCell id="PuRmvYOiPRtLhS61ahAM-4" value="&lt;div&gt;&lt;span style=&quot;background-color: transparent; color: light-dark(rgb(0, 0, 0), rgb(255, 255, 255));&quot;&gt;Value = 7&lt;/span&gt;&lt;/div&gt;" style="text;strokeColor=none;fillColor=none;align=left;verticalAlign=top;spacingLeft=4;spacingRight=4;overflow=hidden;rotatable=0;points=[[0,0.5],[1,0.5]];portConstraint=eastwest;whiteSpace=wrap;html=1;labelBackgroundColor=none;rounded=0;" vertex="1" parent="PuRmvYOiPRtLhS61ahAM-3">
          <mxGeometry y="26" width="150" height="34" as="geometry" />
        </mxCell>
        <mxCell id="PuRmvYOiPRtLhS61ahAM-15" style="edgeStyle=orthogonalEdgeStyle;rounded=0;orthogonalLoop=1;jettySize=auto;html=1;entryX=0;entryY=0.5;entryDx=0;entryDy=0;labelBackgroundColor=none;fontColor=default;endArrow=none;startFill=0;" edge="1" parent="1" source="PuRmvYOiPRtLhS61ahAM-5" target="PuRmvYOiPRtLhS61ahAM-8">
          <mxGeometry relative="1" as="geometry" />
        </mxCell>
        <mxCell id="PuRmvYOiPRtLhS61ahAM-24" style="edgeStyle=orthogonalEdgeStyle;shape=connector;rounded=0;orthogonalLoop=1;jettySize=auto;html=1;entryX=0;entryY=0.5;entryDx=0;entryDy=0;strokeColor=default;align=center;verticalAlign=middle;fontFamily=Helvetica;fontSize=11;fontColor=default;labelBackgroundColor=none;startFill=0;endArrow=none;" edge="1" parent="1" source="PuRmvYOiPRtLhS61ahAM-5" target="PuRmvYOiPRtLhS61ahAM-20">
          <mxGeometry relative="1" as="geometry" />
        </mxCell>
        <mxCell id="PuRmvYOiPRtLhS61ahAM-5" value="Mary: Student" style="swimlane;fontStyle=1;align=center;verticalAlign=top;childLayout=stackLayout;horizontal=1;startSize=26;horizontalStack=0;resizeParent=1;resizeParentMax=0;resizeLast=0;collapsible=1;marginBottom=0;whiteSpace=wrap;html=1;labelBackgroundColor=none;rounded=0;" vertex="1" parent="1">
          <mxGeometry x="40" y="453" width="140" height="70" as="geometry">
            <mxRectangle x="80" y="80" width="80" height="30" as="alternateBounds" />
          </mxGeometry>
        </mxCell>
        <mxCell id="PuRmvYOiPRtLhS61ahAM-6" value="Am = p21028&lt;div&gt;Name = Mary Dimitrouli&lt;/div&gt;" style="text;strokeColor=none;fillColor=none;align=left;verticalAlign=top;spacingLeft=4;spacingRight=4;overflow=hidden;rotatable=0;points=[[0,0.5],[1,0.5]];portConstraint=eastwest;whiteSpace=wrap;html=1;labelBackgroundColor=none;rounded=0;" vertex="1" parent="PuRmvYOiPRtLhS61ahAM-5">
          <mxGeometry y="26" width="140" height="44" as="geometry" />
        </mxCell>
        <mxCell id="PuRmvYOiPRtLhS61ahAM-7" value="Mary.Grades[0] : Grade" style="swimlane;fontStyle=1;align=center;verticalAlign=top;childLayout=stackLayout;horizontal=1;startSize=26;horizontalStack=0;resizeParent=1;resizeParentMax=0;resizeLast=0;collapsible=1;marginBottom=0;whiteSpace=wrap;html=1;labelBackgroundColor=none;rounded=0;" vertex="1" parent="1">
          <mxGeometry x="260" y="530" width="150" height="60" as="geometry">
            <mxRectangle x="80" y="80" width="80" height="30" as="alternateBounds" />
          </mxGeometry>
        </mxCell>
        <mxCell id="PuRmvYOiPRtLhS61ahAM-8" value="&lt;div&gt;&lt;span style=&quot;background-color: transparent; color: light-dark(rgb(0, 0, 0), rgb(255, 255, 255));&quot;&gt;Value = 8&lt;/span&gt;&lt;/div&gt;" style="text;strokeColor=none;fillColor=none;align=left;verticalAlign=top;spacingLeft=4;spacingRight=4;overflow=hidden;rotatable=0;points=[[0,0.5],[1,0.5]];portConstraint=eastwest;whiteSpace=wrap;html=1;labelBackgroundColor=none;rounded=0;" vertex="1" parent="PuRmvYOiPRtLhS61ahAM-7">
          <mxGeometry y="26" width="150" height="34" as="geometry" />
        </mxCell>
        <mxCell id="PuRmvYOiPRtLhS61ahAM-9" value="Educational Software : Course" style="swimlane;fontStyle=1;align=center;verticalAlign=top;childLayout=stackLayout;horizontal=1;startSize=26;horizontalStack=0;resizeParent=1;resizeParentMax=0;resizeLast=0;collapsible=1;marginBottom=0;whiteSpace=wrap;html=1;labelBackgroundColor=none;rounded=0;" vertex="1" parent="1">
          <mxGeometry x="510" y="443" width="290" height="80" as="geometry">
            <mxRectangle x="80" y="80" width="80" height="30" as="alternateBounds" />
          </mxGeometry>
        </mxCell>
        <mxCell id="PuRmvYOiPRtLhS61ahAM-10" value="Id =&amp;nbsp;&lt;span style=&quot;background-color: transparent;&quot;&gt;5f3b6e1e-9e7d-4b49-b6d7-57b6aadc2f65&lt;/span&gt;&lt;div&gt;&lt;div&gt;Name = Educational Software&lt;/div&gt;&lt;div&gt;Semester = 8&lt;/div&gt;&lt;/div&gt;" style="text;strokeColor=none;fillColor=none;align=left;verticalAlign=top;spacingLeft=4;spacingRight=4;overflow=hidden;rotatable=0;points=[[0,0.5],[1,0.5]];portConstraint=eastwest;whiteSpace=wrap;html=1;labelBackgroundColor=none;rounded=0;" vertex="1" parent="PuRmvYOiPRtLhS61ahAM-9">
          <mxGeometry y="26" width="290" height="54" as="geometry" />
        </mxCell>
        <mxCell id="PuRmvYOiPRtLhS61ahAM-17" style="edgeStyle=orthogonalEdgeStyle;rounded=0;orthogonalLoop=1;jettySize=auto;html=1;entryX=0;entryY=0.5;entryDx=0;entryDy=0;labelBackgroundColor=none;fontColor=default;endArrow=none;startFill=0;" edge="1" parent="1" source="TFHFOIj9tjhnoZoXByAP-6" target="TFHFOIj9tjhnoZoXByAP-4">
          <mxGeometry relative="1" as="geometry" />
        </mxCell>
        <mxCell id="PuRmvYOiPRtLhS61ahAM-22" style="edgeStyle=orthogonalEdgeStyle;shape=connector;rounded=0;orthogonalLoop=1;jettySize=auto;html=1;entryX=0;entryY=0.5;entryDx=0;entryDy=0;strokeColor=default;align=center;verticalAlign=middle;fontFamily=Helvetica;fontSize=11;fontColor=default;labelBackgroundColor=none;startFill=0;endArrow=none;" edge="1" parent="1" source="PuRmvYOiPRtLhS61ahAM-19" target="PuRmvYOiPRtLhS61ahAM-10">
          <mxGeometry relative="1" as="geometry">
            <Array as="points">
              <mxPoint x="460" y="630" />
              <mxPoint x="460" y="496" />
            </Array>
          </mxGeometry>
        </mxCell>
        <mxCell id="PuRmvYOiPRtLhS61ahAM-19" value="Mary.Grades[1] : Grade" style="swimlane;fontStyle=1;align=center;verticalAlign=top;childLayout=stackLayout;horizontal=1;startSize=26;horizontalStack=0;resizeParent=1;resizeParentMax=0;resizeLast=0;collapsible=1;marginBottom=0;whiteSpace=wrap;html=1;labelBackgroundColor=none;rounded=0;" vertex="1" parent="1">
          <mxGeometry x="260" y="600" width="150" height="60" as="geometry">
            <mxRectangle x="80" y="80" width="80" height="30" as="alternateBounds" />
          </mxGeometry>
        </mxCell>
        <mxCell id="PuRmvYOiPRtLhS61ahAM-20" value="&lt;div&gt;&lt;span style=&quot;background-color: transparent; color: light-dark(rgb(0, 0, 0), rgb(255, 255, 255));&quot;&gt;Value = 10&lt;/span&gt;&lt;/div&gt;" style="text;strokeColor=none;fillColor=none;align=left;verticalAlign=top;spacingLeft=4;spacingRight=4;overflow=hidden;rotatable=0;points=[[0,0.5],[1,0.5]];portConstraint=eastwest;whiteSpace=wrap;html=1;labelBackgroundColor=none;rounded=0;" vertex="1" parent="PuRmvYOiPRtLhS61ahAM-19">
          <mxGeometry y="26" width="150" height="34" as="geometry" />
        </mxCell>
        <mxCell id="PuRmvYOiPRtLhS61ahAM-21" style="edgeStyle=orthogonalEdgeStyle;shape=connector;rounded=0;orthogonalLoop=1;jettySize=auto;html=1;entryX=0;entryY=0.5;entryDx=0;entryDy=0;strokeColor=default;align=center;verticalAlign=middle;fontFamily=Helvetica;fontSize=11;fontColor=default;labelBackgroundColor=none;startFill=0;endArrow=none;" edge="1" parent="1" source="PuRmvYOiPRtLhS61ahAM-8" target="PuRmvYOiPRtLhS61ahAM-10">
          <mxGeometry relative="1" as="geometry" />
        </mxCell>
        <mxCell id="PuRmvYOiPRtLhS61ahAM-25" value="MaryDto : StudentDto" style="swimlane;fontStyle=1;align=center;verticalAlign=top;childLayout=stackLayout;horizontal=1;startSize=26;horizontalStack=0;resizeParent=1;resizeParentMax=0;resizeLast=0;collapsible=1;marginBottom=0;whiteSpace=wrap;html=1;labelBackgroundColor=none;rounded=0;" vertex="1" parent="1">
          <mxGeometry x="40" y="920" width="160" height="80" as="geometry">
            <mxRectangle x="80" y="80" width="80" height="30" as="alternateBounds" />
          </mxGeometry>
        </mxCell>
        <mxCell id="PuRmvYOiPRtLhS61ahAM-26" value="&lt;div&gt;Fullname = Mary Dimitrouli&lt;br&gt;&lt;/div&gt;&lt;div&gt;Am = p21052&lt;/div&gt;&lt;div&gt;Average = 9&lt;/div&gt;" style="text;strokeColor=none;fillColor=none;align=left;verticalAlign=top;spacingLeft=4;spacingRight=4;overflow=hidden;rotatable=0;points=[[0,0.5],[1,0.5]];portConstraint=eastwest;whiteSpace=wrap;html=1;labelBackgroundColor=none;rounded=0;" vertex="1" parent="PuRmvYOiPRtLhS61ahAM-25">
          <mxGeometry y="26" width="160" height="54" as="geometry" />
        </mxCell>
        <mxCell id="PuRmvYOiPRtLhS61ahAM-38" style="edgeStyle=orthogonalEdgeStyle;shape=connector;rounded=0;orthogonalLoop=1;jettySize=auto;html=1;entryX=0;entryY=0.5;entryDx=0;entryDy=0;strokeColor=default;align=center;verticalAlign=middle;fontFamily=Helvetica;fontSize=11;fontColor=default;labelBackgroundColor=none;startFill=0;endArrow=none;" edge="1" parent="1" source="PuRmvYOiPRtLhS61ahAM-27" target="TFHFOIj9tjhnoZoXByAP-14">
          <mxGeometry relative="1" as="geometry">
            <Array as="points">
              <mxPoint x="540" y="780" />
              <mxPoint x="540" y="703" />
            </Array>
          </mxGeometry>
        </mxCell>
        <mxCell id="PuRmvYOiPRtLhS61ahAM-39" style="edgeStyle=orthogonalEdgeStyle;shape=connector;rounded=0;orthogonalLoop=1;jettySize=auto;html=1;entryX=0;entryY=0.5;entryDx=0;entryDy=0;strokeColor=default;align=center;verticalAlign=middle;fontFamily=Helvetica;fontSize=11;fontColor=default;labelBackgroundColor=none;startFill=0;endArrow=none;" edge="1" parent="1" source="PuRmvYOiPRtLhS61ahAM-27" target="PuRmvYOiPRtLhS61ahAM-31">
          <mxGeometry relative="1" as="geometry" />
        </mxCell>
        <mxCell id="PuRmvYOiPRtLhS61ahAM-27" value="NickWithGrades : StudentWithGradesDto" style="swimlane;fontStyle=1;align=center;verticalAlign=top;childLayout=stackLayout;horizontal=1;startSize=26;horizontalStack=0;resizeParent=1;resizeParentMax=0;resizeLast=0;collapsible=1;marginBottom=0;whiteSpace=wrap;html=1;labelBackgroundColor=none;rounded=0;" vertex="1" parent="1">
          <mxGeometry x="250" y="760" width="270" height="40" as="geometry">
            <mxRectangle x="80" y="80" width="80" height="30" as="alternateBounds" />
          </mxGeometry>
        </mxCell>
        <mxCell id="PuRmvYOiPRtLhS61ahAM-41" style="edgeStyle=orthogonalEdgeStyle;shape=connector;rounded=0;orthogonalLoop=1;jettySize=auto;html=1;entryX=0;entryY=0.5;entryDx=0;entryDy=0;strokeColor=default;align=center;verticalAlign=middle;fontFamily=Helvetica;fontSize=11;fontColor=default;labelBackgroundColor=none;startFill=0;endArrow=none;" edge="1" parent="1" source="PuRmvYOiPRtLhS61ahAM-29" target="PuRmvYOiPRtLhS61ahAM-34">
          <mxGeometry relative="1" as="geometry" />
        </mxCell>
        <mxCell id="PuRmvYOiPRtLhS61ahAM-42" style="edgeStyle=orthogonalEdgeStyle;shape=connector;rounded=0;orthogonalLoop=1;jettySize=auto;html=1;entryX=0;entryY=0.5;entryDx=0;entryDy=0;strokeColor=default;align=center;verticalAlign=middle;fontFamily=Helvetica;fontSize=11;fontColor=default;labelBackgroundColor=none;startFill=0;endArrow=none;" edge="1" parent="1" source="PuRmvYOiPRtLhS61ahAM-29" target="PuRmvYOiPRtLhS61ahAM-36">
          <mxGeometry relative="1" as="geometry">
            <Array as="points">
              <mxPoint x="540" y="940" />
              <mxPoint x="540" y="1083" />
            </Array>
          </mxGeometry>
        </mxCell>
        <mxCell id="PuRmvYOiPRtLhS61ahAM-29" value="MaryWithGrades : StudentWithGradesDto" style="swimlane;fontStyle=1;align=center;verticalAlign=top;childLayout=stackLayout;horizontal=1;startSize=26;horizontalStack=0;resizeParent=1;resizeParentMax=0;resizeLast=0;collapsible=1;marginBottom=0;whiteSpace=wrap;html=1;labelBackgroundColor=none;rounded=0;" vertex="1" parent="1">
          <mxGeometry x="250" y="920" width="270" height="40" as="geometry">
            <mxRectangle x="80" y="80" width="80" height="30" as="alternateBounds" />
          </mxGeometry>
        </mxCell>
        <mxCell id="PuRmvYOiPRtLhS61ahAM-30" value="NickWithGrades.Grades[1]: StudentGradeDto" style="swimlane;fontStyle=1;align=center;verticalAlign=top;childLayout=stackLayout;horizontal=1;startSize=26;horizontalStack=0;resizeParent=1;resizeParentMax=0;resizeLast=0;collapsible=1;marginBottom=0;whiteSpace=wrap;html=1;labelBackgroundColor=none;rounded=0;" vertex="1" parent="1">
          <mxGeometry x="560" y="770" width="310" height="100" as="geometry">
            <mxRectangle x="80" y="80" width="80" height="30" as="alternateBounds" />
          </mxGeometry>
        </mxCell>
        <mxCell id="PuRmvYOiPRtLhS61ahAM-31" value="&lt;div&gt;CourseId =&amp;nbsp;&lt;span style=&quot;background-color: transparent; color: light-dark(rgb(0, 0, 0), rgb(255, 255, 255));&quot;&gt;5f3b6e1e-9e7d-4b49-b6d7-57b6aadc2f65&lt;/span&gt;&lt;/div&gt;&lt;div&gt;Name = Educational Software&lt;/div&gt;&lt;div&gt;Semester = 8&lt;/div&gt;&lt;div&gt;Grade = 7&lt;/div&gt;" style="text;strokeColor=none;fillColor=none;align=left;verticalAlign=top;spacingLeft=4;spacingRight=4;overflow=hidden;rotatable=0;points=[[0,0.5],[1,0.5]];portConstraint=eastwest;whiteSpace=wrap;html=1;labelBackgroundColor=none;rounded=0;" vertex="1" parent="PuRmvYOiPRtLhS61ahAM-30">
          <mxGeometry y="26" width="310" height="74" as="geometry" />
        </mxCell>
        <mxCell id="PuRmvYOiPRtLhS61ahAM-33" value="MaryWithGrades.Grades[0]: StudentGradeDto" style="swimlane;fontStyle=1;align=center;verticalAlign=top;childLayout=stackLayout;horizontal=1;startSize=26;horizontalStack=0;resizeParent=1;resizeParentMax=0;resizeLast=0;collapsible=1;marginBottom=0;whiteSpace=wrap;html=1;labelBackgroundColor=none;rounded=0;" vertex="1" parent="1">
          <mxGeometry x="560" y="910" width="310" height="100" as="geometry">
            <mxRectangle x="80" y="80" width="80" height="30" as="alternateBounds" />
          </mxGeometry>
        </mxCell>
        <mxCell id="PuRmvYOiPRtLhS61ahAM-34" value="&lt;div&gt;CourseId =&amp;nbsp;&lt;span style=&quot;background-color: transparent; color: light-dark(rgb(0, 0, 0), rgb(255, 255, 255));&quot;&gt;5f3b6e1e-9e7d-4b49-b6d7-57b6aadc2f65&lt;/span&gt;&lt;/div&gt;&lt;div&gt;Name = Educational Software&lt;/div&gt;&lt;div&gt;Semester = 8&lt;/div&gt;&lt;div&gt;Grade = 8&lt;/div&gt;" style="text;strokeColor=none;fillColor=none;align=left;verticalAlign=top;spacingLeft=4;spacingRight=4;overflow=hidden;rotatable=0;points=[[0,0.5],[1,0.5]];portConstraint=eastwest;whiteSpace=wrap;html=1;labelBackgroundColor=none;rounded=0;" vertex="1" parent="PuRmvYOiPRtLhS61ahAM-33">
          <mxGeometry y="26" width="310" height="74" as="geometry" />
        </mxCell>
        <mxCell id="PuRmvYOiPRtLhS61ahAM-35" value="MaryWithGrades.Grades[1]: StudentGradeDto" style="swimlane;fontStyle=1;align=center;verticalAlign=top;childLayout=stackLayout;horizontal=1;startSize=26;horizontalStack=0;resizeParent=1;resizeParentMax=0;resizeLast=0;collapsible=1;marginBottom=0;whiteSpace=wrap;html=1;labelBackgroundColor=none;rounded=0;" vertex="1" parent="1">
          <mxGeometry x="560" y="1020" width="310" height="100" as="geometry">
            <mxRectangle x="80" y="80" width="80" height="30" as="alternateBounds" />
          </mxGeometry>
        </mxCell>
        <mxCell id="PuRmvYOiPRtLhS61ahAM-36" value="&lt;div&gt;CourseId =&amp;nbsp;&lt;span style=&quot;background-color: transparent; color: light-dark(rgb(0, 0, 0), rgb(255, 255, 255));&quot;&gt;5f3b6e1e-9e7d-4b49-b6d7-57b6aadc2f65&lt;/span&gt;&lt;/div&gt;&lt;div&gt;Name = Educational Software&lt;/div&gt;&lt;div&gt;Semester = 8&lt;/div&gt;&lt;div&gt;Grade = 10&lt;/div&gt;" style="text;strokeColor=none;fillColor=none;align=left;verticalAlign=top;spacingLeft=4;spacingRight=4;overflow=hidden;rotatable=0;points=[[0,0.5],[1,0.5]];portConstraint=eastwest;whiteSpace=wrap;html=1;labelBackgroundColor=none;rounded=0;" vertex="1" parent="PuRmvYOiPRtLhS61ahAM-35">
          <mxGeometry y="26" width="310" height="74" as="geometry" />
        </mxCell>
        <mxCell id="PuRmvYOiPRtLhS61ahAM-40" style="edgeStyle=orthogonalEdgeStyle;shape=connector;rounded=0;orthogonalLoop=1;jettySize=auto;html=1;entryX=0;entryY=0.5;entryDx=0;entryDy=0;strokeColor=default;align=center;verticalAlign=middle;fontFamily=Helvetica;fontSize=11;fontColor=default;labelBackgroundColor=none;startFill=0;endArrow=none;" edge="1" parent="1" source="PuRmvYOiPRtLhS61ahAM-26" target="PuRmvYOiPRtLhS61ahAM-29">
          <mxGeometry relative="1" as="geometry" />
        </mxCell>
      </root>
    </mxGraphModel>
  </diagram>
</mxfile>
